<?xml version="1.0" encoding="UTF-8"?>
<svg id="_Слой_1" data-name="Слой 1" xmlns="http://www.w3.org/2000/svg" viewBox="0 0 3481.38 1800">
  <defs>
    <style>
      .cls-1, .cls-2 {
        fill: #fff;
      }

      .cls-2 {
        fill-rule: evenodd;
      }

      .cls-3 {
        fill: #b663b7;
      }
    </style>
  </defs>
  <path class="cls-3" d="m2081.38,1673.03V126.97c0-112.89,186.16-169.43,295.04-89.6l1054.34,773.03c67.49,49.49,67.49,129.72,0,179.2l-1054.34,773.03c-108.88,79.83-295.04,23.29-295.04-89.6Z"/>
  <path class="cls-2" d="m2228.9,526.06c-6.69,7.39-7.35,34.74-7.35,301.41s.52,293.73,7.77,300.01c10.83,9.37,379.12,154.58,392.06,154.58s381.23-145.21,392.06-154.58c7.26-6.28,7.77-26.26,7.77-300.79s-.41-294.42-8.13-301.41c-4.47-4.04-13.32-7.35-19.68-7.35s-91.16,30.98-188.46,68.84c-97.3,37.86-179.91,68.83-183.57,68.82s-86.36-30.98-183.77-68.84c-97.41-37.85-182.56-68.82-189.23-68.82s-15.44,3.66-19.48,8.13m51.48,312.27l1.15,250.3,153.27,60.79,153.27,60.79,1.15-249.26c.64-137.09-.36-250.6-2.22-252.24-2.49-2.21-231.01-91.92-299.95-117.76-7.41-2.77-7.75,10.12-6.66,247.37m525.37-189.67l-151.05,59.03-1.15,251.62-1.15,251.62,16.7-6.61c9.18-3.63,78.67-31.16,154.42-61.17l137.72-54.56,1.15-249.79c.63-137.38-.37-249.65-2.22-249.48-1.85.17-71.34,26.88-154.42,59.34m-488,59.54c-10.9,12.04-9.49,34.71,2.64,42.59,15.83,10.29,204.38,82.52,215.47,82.54,12.98.02,27.77-14.94,27.77-28.09,0-5.68-4.5-14.37-10-19.3-11.56-10.38-203.73-85.87-218.58-85.87-5.47,0-13.26,3.66-17.3,8.13m478.37,31.13c-54.16,21.26-102.64,42.43-107.73,47.04-5.09,4.61-9.25,13.06-9.25,18.79,0,13.04,14.69,28.19,27.34,28.19,10.81,0,200.47-72.52,215.89-82.55,20.96-13.63,8.31-51.13-17.01-50.43-5.91.16-55.07,17.7-109.23,38.96m-478.37,102.14c-10.91,12.05-9.5,34.71,2.64,42.53,15.71,10.12,205.12,82.62,215.84,82.62,12.66,0,27.39-15.11,27.39-28.1,0-5.68-4.5-14.37-10-19.3-11.56-10.38-203.73-85.87-218.58-85.87-5.47,0-13.26,3.66-17.3,8.13m478.37,31.13c-54.16,21.26-102.64,42.43-107.73,47.04-5.09,4.61-9.25,13.06-9.25,18.79,0,13.06,14.7,28.19,27.39,28.19,10.72,0,200.13-72.5,215.84-82.62,20.98-13.51,8.3-51.06-17.01-50.36-5.91.16-55.07,17.7-109.23,38.96m-478.37,102.14c-10.91,12.05-9.5,34.71,2.64,42.53,15.71,10.12,205.12,82.62,215.84,82.62,12.66,0,27.39-15.11,27.39-28.1,0-5.68-4.5-14.41-10-19.39-11.54-10.46-203.35-85.78-218.45-85.78-5.54,0-13.39,3.66-17.43,8.13m478.42,31.01c-54.14,21.24-102.62,42.41-107.73,47.07s-9.31,13.15-9.31,18.88c0,12.86,14.63,28.19,26.92,28.19,10.52,0,201.28-72.81,216.31-82.57,20.96-13.6,8.32-51.07-17.01-50.44-5.91.15-55.05,17.64-109.18,38.87"/>
  <g>
    <path class="cls-1" d="m0,445h222.22c101.25,0,174.75,14.42,220.5,43.25s68.62,74.67,68.62,137.53c0,42.69-10.02,77.7-30.03,105.06-20.03,27.38-46.64,43.81-79.84,49.34v4.89c45.25,10.09,77.89,28.97,97.92,56.62,20.02,27.67,30.03,64.45,30.03,110.33,0,65.09-23.53,115.86-70.58,152.3-47.05,36.45-110.94,54.67-191.69,54.67H0V445Zm151.38,283h87.94c41.03,0,70.73-6.36,89.14-19.08s27.61-33.75,27.61-63.11c0-27.39-10.02-47.05-30.05-58.95s-51.7-17.86-95.02-17.86h-79.62v159Zm0,120v186h98.69c41.69,0,72.45-7.97,92.33-23.92,19.88-15.94,29.81-40.36,29.81-73.23,0-59.22-42.34-88.84-127.03-88.84h-93.8Z"/>
    <path class="cls-1" d="m804.2,613v215.86c0,22.8-3.75,78.47-11.23,167.03l251.77-382.89h179.17v546h-144.05v-217.81c0-38.75,3.25-93.44,9.77-164.09l-250.78,381.91h-178.69v-546h144.05Z"/>
    <path class="cls-1" d="m1951.11,1355h-133.78v-196h-367.12v196h-133.8v-305h45.89c31.25-48.5,57.45-109.69,78.61-183.58s35.95-158.36,44.42-253.42h385.72v437h80.06v305Zm-228.98-305v-325h-111.8c-8.14,60.52-19.28,117.94-33.44,172.27s-33.77,105.23-58.83,152.73h204.06Z"/>
  </g>
</svg>