<?xml version="1.0" encoding="utf-8"?>
<!-- Generator: Adobe Illustrator 27.1.1, SVG Export Plug-In . SVG Version: 6.00 Build 0)  -->
<svg version="1.1" id="Слой_1" xmlns="http://www.w3.org/2000/svg" xmlns:xlink="http://www.w3.org/1999/xlink" x="0px" y="0px"
	 viewBox="0 0 800 800" style="enable-background:new 0 0 800 800;" xml:space="preserve">
<style type="text/css">
	.st0{fill:none;stroke:#FFFFFF;stroke-width:15;stroke-miterlimit:10;}
</style>
<path class="st0" d="M100,312.5c0,27.6,22.4,50,50,50h100c27.6,0,50-22.4,50-50c0-50,50-50,100-50s100,0,100,50
	c0,27.6,22.4,50,50,50h100c27.6,0,50-22.4,50-50c0-125-50-175-300-175S100,187.5,100,312.5z"/>
<circle class="st0" cx="400" cy="462.5" r="100"/>
<path class="st0" d="M200,362.5l-48.9,146.6c-20.4,61,12.6,127,73.6,147.4c11.9,4,24.4,6,37,6h276.5c64.3,0.1,116.6-52,116.6-116.4
	c0-12.6-2-25.1-6-37L600,362.5"/>
</svg>
